<svg xmlns="http://www.w3.org/2000/svg" xmlns:xlink="http://www.w3.org/1999/xlink" version="1.1" x="0px" y="0px" width="100px" height="100px" viewBox="0 0 100 100" enable-background="new 0 0 100 100" xml:space="preserve">
<g id="Captions">
	<rect x="-192" width="185" height="99"/>
	<rect y="-36" width="100" height="30"/>
	<text transform="matrix(1 0 0 1 66 -19.5)" fill="#000000" font-family="'Helvetica'" font-size="2.4">http://thenounproject.com</text>
	<text transform="matrix(1 0 0 1 7.166 -24.5)"><tspan x="0" y="0" fill="#000000" font-family="'Helvetica-Bold'" font-size="6.1578">The Noun Project</tspan><tspan x="1.12" y="4.8" fill="#000000" font-family="'Helvetica-Bold'" font-size="4">Icon Template</tspan></text>
	<text transform="matrix(1 0 0 1 -178.5 10.5)" fill="#000000" font-family="'Helvetica-Bold'" font-size="6.1578">Reminders</text>
	<line fill="#000000" stroke="#FFFFFF" stroke-miterlimit="10" x1="8" y1="-14.5" x2="18" y2="-14.5"/>
	<line fill="#000000" stroke="#FFFFFF" stroke-miterlimit="10" x1="-179" y1="16.5" x2="-162" y2="16.5"/>
	<g>
		<g>
			<g>
				<rect x="-170.802" y="31.318" fill="#000000" width="8.721" height="8.642"/>
				<path fill="#000000" d="M-164.455,42.312h4.747v-4.703h-4.747V42.312z M-159.266,42.749h-5.63V37.17h5.63V42.749      L-159.266,42.749z M-166.221,44.062h8.279v-8.203h-8.279V44.062L-166.221,44.062z M-157.5,44.5h-9.163v-9.079h9.163V44.5      L-157.5,44.5z"/>
				<polygon fill="#000000" points="-166.149,44.133 -166.292,43.991 -158.013,35.787 -157.871,35.929     "/>
			</g>
		</g>
	</g>
	<rect x="-179" y="58" fill="none" width="35" height="32.5"/>
	<text transform="matrix(1 0 0 1 -179 60.1572)"><tspan x="0" y="0" fill="#000000" font-family="'Helvetica-Bold'" font-size="3">Strokes</tspan><tspan x="0" y="5" fill="#000000" font-family="'Helvetica'" font-size="2.4">Try to keep strokes at 4px</tspan><tspan x="0" y="10" fill="#000000" font-family="'Helvetica'" font-size="2.4">Minimum stroke weight is 2px</tspan><tspan x="0" y="14.5" fill="#000000" font-family="'Helvetica'" font-size="2.4">For thicker strokes use even </tspan><tspan x="0" y="17.5" fill="#000000" font-family="'Helvetica'" font-size="2.4">numbers: 6px, 8px etc.</tspan><tspan x="0" y="22" fill="#000000" font-family="'Helvetica-Bold'" font-size="2.4">Remember to expand strokes </tspan><tspan x="0" y="25" fill="#000000" font-family="'Helvetica-Bold'" font-size="2.4">before saving as an SVG </tspan></text>
	<rect x="-136.5" y="58" fill="none" width="35" height="32.5"/>
	<text transform="matrix(1 0 0 1 -136.5 60.1572)"><tspan x="0" y="0" fill="#000000" font-family="'Helvetica-Bold'" font-size="3">Size</tspan><tspan x="0" y="5" fill="#000000" font-family="'Helvetica'" font-size="2.4">Cannot be wider or taller than </tspan><tspan x="0" y="8.5" fill="#000000" font-family="'Helvetica'" font-size="2.4">100px (artboard size)</tspan><tspan x="0" y="13.5" fill="#000000" font-family="'Helvetica'" font-size="2.4">Scale your icon to fill as much of </tspan><tspan x="0" y="16.5" fill="#000000" font-family="'Helvetica'" font-size="2.4">the artboard as possible</tspan></text>
	<rect x="-94" y="58" fill="none" width="35" height="32.5"/>
	<text transform="matrix(1 0 0 1 -94 60.1572)"><tspan x="0" y="0" fill="#000000" font-family="'Helvetica-Bold'" font-size="3">Ungroup</tspan><tspan x="0" y="5" fill="#000000" font-family="'Helvetica'" font-size="2.4">If your design has more than one </tspan><tspan x="0" y="8" fill="#000000" font-family="'Helvetica'" font-size="2.4">shape, make sure to ungroup</tspan></text>
	<rect x="-50" y="58" fill="none" width="35" height="32.5"/>
	<text transform="matrix(1 0 0 1 -50 60.1572)"><tspan x="0" y="0" fill="#000000" font-family="'Helvetica-Bold'" font-size="3">Save as</tspan><tspan x="0" y="5" fill="#000000" font-family="'Helvetica'" font-size="2.4">Save as .SVG and make sure </tspan><tspan x="0" y="8" fill="#000000" font-family="'Helvetica'" font-size="2.4">&#8220;Use Artboards&#8221; is checked</tspan></text>
	<text transform="matrix(1.0074 0 0 1 -125.542 30.5933)" fill="#000000" font-family="'Helvetica'" font-size="2.5731">100px</text>
	<text transform="matrix(1.0074 0 0 1 -41 39)" fill="#000000" font-family="'Helvetica-Bold'" font-size="5.1462">.SVG</text>
	<rect x="-126.514" y="34.815" fill="#000000" width="10.261" height="10.185"/>
	<rect x="-126.477" y="31.766" fill="#000000" width="0.522" height="2.337"/>
	<rect x="-116.812" y="31.766" fill="#000000" width="0.523" height="2.337"/>
	<rect x="-127" y="32.337" fill="#000000" width="11.233" height="0.572"/>
	<g>
		<rect x="-83.805" y="33.844" fill="#000000" width="10.305" height="10.156"/>
		<rect x="-76.809" y="28.707" fill="#000000" width="3.308" height="3.261"/>
	</g>
	<rect x="-178.5" y="22.5" fill="#000000" stroke="#FFFFFF" stroke-miterlimit="10" width="30" height="30"/>
	<rect x="-136.5" y="22.5" fill="#000000" stroke="#FFFFFF" stroke-miterlimit="10" width="30" height="30"/>
	<rect x="-93.5" y="22.5" fill="#000000" stroke="#FFFFFF" stroke-miterlimit="10" width="30" height="30"/>
	<rect x="-49.5" y="22.5" fill="#000000" stroke="#FFFFFF" stroke-miterlimit="10" width="30" height="30"/>
</g>
<g id="Your_Icon">
	<path fill="#000000" d="M69.463,31.365c-0.001,0-0.002-0.265-0.002-0.265c0-0.571-0.464-1.035-1.034-1.035l-37.315,0.016   c-0.572,0-1.035,0.462-1.036,1.034l-0.012,0.589c0,0.572,0.463,1.035,1.033,1.036l37.316-0.015c0.569,0,1.035-0.463,1.035-1.035   c0,0,0.002-0.264,0.003-0.264L69.463,31.365z"/>
	<path fill="#000000" d="M69.463,36.713c-0.001,0-0.002-0.265-0.002-0.265c0-0.571-0.464-1.035-1.034-1.035l-37.315,0.015   c-0.572,0-1.035,0.462-1.036,1.034l-0.012,0.589c0,0.572,0.463,1.035,1.033,1.036l37.316-0.015c0.569,0,1.035-0.463,1.035-1.035   c0,0,0.002-0.264,0.003-0.264L69.463,36.713z"/>
	<path fill="#000000" d="M69.463,42.061c-0.001,0-0.002-0.265-0.002-0.265c0-0.571-0.464-1.035-1.034-1.035l-37.315,0.015   c-0.572,0-1.035,0.462-1.036,1.034l-0.012,0.589c0,0.572,0.463,1.035,1.033,1.036l37.316-0.015c0.569,0,1.035-0.463,1.035-1.035   c0,0,0.002-0.264,0.003-0.264L69.463,42.061z"/>
	<path fill="#000000" d="M44.524,47.962c-0.001,0-0.002-0.265-0.002-0.265c0-0.571-0.463-1.035-1.033-1.035l-12.377,0.015   c-0.572,0-1.035,0.462-1.036,1.035l-0.012,0.589c0,0.572,0.463,1.035,1.033,1.035l12.376-0.015c0.571,0,1.036-0.463,1.036-1.035   c0,0,0.001-0.264,0.003-0.264L44.524,47.962z"/>
	<path fill="#000000" d="M69.463,59.083c-0.001,0-0.002-0.265-0.002-0.265c0-0.571-0.464-1.035-1.034-1.035l-37.315,0.016   c-0.572,0-1.035,0.462-1.036,1.034l-0.012,0.589c0,0.572,0.463,1.035,1.033,1.035l37.316-0.015c0.569,0,1.035-0.463,1.035-1.035   c0,0,0.002-0.264,0.003-0.264L69.463,59.083z"/>
	<path fill="#000000" d="M69.463,64.43c-0.001,0-0.002-0.265-0.002-0.265c0-0.571-0.464-1.035-1.034-1.035l-37.315,0.016   c-0.572,0-1.035,0.462-1.036,1.034l-0.012,0.589c0,0.572,0.463,1.035,1.033,1.035l37.316-0.015c0.569,0,1.035-0.463,1.035-1.035   c0,0,0.002-0.264,0.003-0.264L69.463,64.43z"/>
	<path fill="#000000" d="M44.524,69.776c-0.001,0-0.002-0.265-0.002-0.265c0-0.57-0.463-1.034-1.033-1.034l-12.377,0.014   c-0.572,0.001-1.035,0.464-1.036,1.035l-0.012,0.59c0,0.571,0.463,1.034,1.033,1.034l12.376-0.015c0.571,0,1.036-0.462,1.036-1.035   c0,0,0.001-0.264,0.003-0.264L44.524,69.776z"/>
	<path fill="#000000" d="M79.196,16.206c-0.01-2.864-2.338-5.181-5.205-5.173c0,0-1.323-0.002-1.323-0.009l-8.231,0.01   c-0.109-2.4-2.084-4.307-4.504-4.292l-1.941,0.003c-0.733-1.508-2.271-2.55-4.059-2.539l-8.388,0.037   c-1.762,0.013-3.265,1.048-3.99,2.532l-2.01,0.003c-2.398,0.017-4.331,1.919-4.438,4.291l-8.461,0.01   c0,0.005-1.324,0.017-1.324,0.017c-2.865,0.007-5.182,2.338-5.173,5.202l0.183,65.192c0.008,2.866,2.336,5.182,5.203,5.173   l48.669-0.061c2.866-0.01,5.182-2.337,5.175-5.201L79.196,16.206z M49.493,6.252c1.317,0,2.386,1.068,2.386,2.386   s-1.068,2.386-2.386,2.386s-2.386-1.068-2.386-2.386S48.176,6.252,49.493,6.252z M25.519,81.476l-0.184-65.193l9.773-0.012   l-0.037,0.207c0.004,0,0.01,0.208,0.01,0.208c0.018,2.479,2.045,4.478,4.525,4.46l20.16-0.036C62.247,21.092,64,19.066,64,16.584   v-0.351l9.78-0.012l0.296,65.192L25.519,81.476z"/>
</g>
</svg>