<?xml version="1.0" encoding="UTF-8" standalone="no"?>
<svg width="60px" height="83px" viewBox="0 0 60 83" version="1.1" xmlns="http://www.w3.org/2000/svg" xmlns:xlink="http://www.w3.org/1999/xlink" xmlns:sketch="http://www.bohemiancoding.com/sketch/ns">
    <!-- Generator: Sketch 3.3.1 (12005) - http://www.bohemiancoding.com/sketch -->
    <title>Slice 1</title>
    <desc>Created with Sketch.</desc>
    <defs></defs>
    <g id="Page-1" stroke="none" stroke-width="1" fill="none" fill-rule="evenodd" sketch:type="MSPage">
        <g id="copy-to-clipboard" sketch:type="MSLayerGroup" fill="#FA8C8C">
            <g id="Your_Icon" sketch:type="MSShapeGroup">
                <path d="M49.461,29.1684523 C49.461,27.4563062 48.997,26.065 48.427,26.065 L11.112,26.1129761 C10.54,26.1129761 10.077,27.4982852 10.076,29.2134299 L10.064,30.9795492 C10.064,32.6946938 10.527,34.0830015 11.097,34.086 C11.097,34.086 23.0043885,34.0716478 28.9580827,34.0644718 C35.4430551,34.0566553 48.413,34.0410224 48.413,34.0410224 C48.982,34.0410224 49.448,32.6527148 49.448,30.9375701 C49.448,30.9375701 49.45,30.1459649 49.451,30.1459649 L49.463,29.9630561 C49.462,29.9630561 49.461,29.1684523 49.461,29.1684523 Z" id="Shape"></path>
                <path d="M49.463,32.713 C49.462,32.713 49.461,32.448 49.461,32.448 C49.461,31.877 48.997,31.413 48.427,31.413 L11.112,31.428 C10.54,31.428 10.077,31.89 10.076,32.462 L10.064,33.051 C10.064,33.623 10.527,34.086 11.097,34.087 L48.413,34.072 C48.982,34.072 49.448,33.609 49.448,33.037 C49.448,33.037 49.45,32.773 49.451,32.773 L49.463,32.713 L49.463,32.713 Z" id="Shape"></path>
                <path d="M42.9954445,40.4196129 C42.9954445,38.7068265 41.9408548,37.315 40.6425477,37.315 L12.4510628,37.3599944 C11.1482003,37.3599944 10.0936105,38.7458216 10.0913328,40.4646073 L10.064,42.2313871 C10.064,43.9471731 11.1185898,45.336 12.4168968,45.336 L40.606104,45.2910056 C41.9066888,45.2910056 42.965834,43.9021788 42.965834,42.1863927 C42.965834,42.1863927 42.9681118,41.3944914 42.9726672,41.3944914 L43,41.2145138 C42.9977223,41.2145138 42.9954445,40.4196129 42.9954445,40.4196129 Z" id="Shape"></path>
                <path d="M49.463,53.0075138 C49.462,53.0075138 49.461,52.2126129 49.461,52.2126129 C49.461,50.4998265 48.997,49.108 48.427,49.108 L11.112,49.155994 C10.54,49.155994 10.077,50.5418212 10.076,52.2576073 L10.064,54.0243871 C10.064,55.7401731 10.527,57.129 11.097,57.129 L48.413,57.0840056 C48.982,57.0840056 49.448,55.6951788 49.448,53.9793927 C49.448,53.9793927 49.45,53.1874914 49.451,53.1874914 L49.463,53.0075138 L49.463,53.0075138 Z" id="Shape"></path>
                <path d="M42.9954445,63.2317737 C42.9954445,61.5213472 41.9408548,60.129 40.6425477,60.129 L12.4510628,60.1710105 C11.1482003,60.1740112 10.0936105,61.5633577 10.0913328,63.2767849 L10.064,65.0472263 C10.064,66.7606536 11.1185898,68.15 12.4168968,68.15 L40.606104,68.1049888 C41.9066888,68.1049888 42.965834,66.7186431 42.965834,64.9992144 C42.965834,64.9992144 42.9681118,64.2070168 42.9726672,64.2070168 L43,64.0269719 C42.9977223,64.0269719 42.9954445,63.2317737 42.9954445,63.2317737 Z" id="Shape"></path>
                <path d="M59.196,12.206 C59.186,9.342 56.858,7.025 53.991,7.033 C53.991,7.033 52.668,7.031 52.668,7.024 L44.437,7.034 C44.328,4.634 42.353,2.727 39.933,2.742 L37.992,2.745 C37.259,1.237 35.721,0.195 33.933,0.206 L25.545,0.243 C23.783,0.256 22.28,1.291 21.555,2.775 L19.545,2.778 C17.147,2.795 15.214,4.697 15.107,7.069 L6.646,7.079 C6.646,7.084 5.322,7.096 5.322,7.096 C2.457,7.103 0.14,9.434 0.149,12.298 L0.332,77.49 C0.34,80.356 2.668,82.672 5.535,82.663 L54.204,82.602 C57.07,82.592 59.386,80.265 59.379,77.401 L59.196,12.206 L59.196,12.206 Z M29.493,2.252 C30.81,2.252 31.879,3.32 31.879,4.638 C31.879,5.956 30.811,7.024 29.493,7.024 C28.175,7.024 27.107,5.956 27.107,4.638 C27.107,3.32 28.176,2.252 29.493,2.252 L29.493,2.252 Z M5.519,77.476 L5.335,12.283 L15.108,12.271 L15.071,12.478 C15.075,12.478 15.081,12.686 15.081,12.686 C15.099,15.165 17.126,17.164 19.606,17.146 L39.766,17.11 C42.247,17.092 44,15.066 44,12.584 L44,12.233 L53.78,12.221 L54.076,77.413 L5.519,77.476 L5.519,77.476 Z" id="Shape"></path>
            </g>
        </g>
    </g>
</svg>